<svg width="18" height="18" viewBox="0 0 18 18" fill="none" xmlns="http://www.w3.org/2000/svg">
<path fill-rule="evenodd" clip-rule="evenodd" d="M8.5 10C10.433 10 12 8.433 12 6.5C12 4.567 10.433 3 8.5 3C6.567 3 5 4.567 5 6.5C5 8.433 6.567 10 8.5 10Z" fill="#4D89EE"/>
<path d="M14 10C13.4477 10 13 10.4477 13 11V12H12C11.4477 12 11 12.4477 11 13C11 13.5523 11.4477 14 12 14H13V15C13 15.5523 13.4477 16 14 16C14.5523 16 15 15.5523 15 15V14H16C16.5523 14 17 13.5523 17 13C17 12.4477 16.5523 12 16 12H15V11C15 10.4477 14.5523 10 14 10Z" fill="#4D89EE"/>
<path fill-rule="evenodd" clip-rule="evenodd" d="M10.8644 11.3535C10.3422 11.7143 10 12.3172 10 13C10 14.1046 10.8954 15 12 15C12 15.3643 12.0974 15.7058 12.2676 16H4.1C4.1 16 3 16 3 15C3 14 4.1 11 8.5 11C9.42805 11 10.2093 11.1335 10.8644 11.3535Z" fill="#4D89EE"/>
</svg>
