<svg width="26" height="24" viewBox="0 0 26 24" fill="none" xmlns="http://www.w3.org/2000/svg">
<path fill-rule="evenodd" clip-rule="evenodd" d="M12.2778 13.0032C15.0699 13.0032 17.3333 10.9656 17.3333 8.45208C17.3333 5.93857 15.0699 3.90096 12.2778 3.90096C9.48568 3.90096 7.22223 5.93857 7.22223 8.45208C7.22223 10.9656 9.48568 13.0032 12.2778 13.0032Z" fill="#686E78"/>
<path d="M20.2222 13.0032C19.4245 13.0032 18.7778 13.5854 18.7778 14.3035V15.6038H17.3333C16.5356 15.6038 15.8889 16.186 15.8889 16.9042C15.8889 17.6223 16.5356 18.2045 17.3333 18.2045H18.7778V19.5048C18.7778 20.223 19.4245 20.8051 20.2222 20.8051C21.02 20.8051 21.6667 20.223 21.6667 19.5048V18.2045H23.1111C23.9089 18.2045 24.5556 17.6223 24.5556 16.9042C24.5556 16.186 23.9089 15.6038 23.1111 15.6038H21.6667V14.3035C21.6667 13.5854 21.02 13.0032 20.2222 13.0032Z" fill="#686E78"/>
<path fill-rule="evenodd" clip-rule="evenodd" d="M15.693 14.7631C14.9387 15.2324 14.4444 16.0163 14.4444 16.9042C14.4444 18.3405 15.7378 19.5048 17.3333 19.5048C17.3333 19.9785 17.474 20.4226 17.7198 20.8051H5.92222C5.92222 20.8051 4.33333 20.8051 4.33333 19.5048C4.33333 18.2045 5.92222 14.3035 12.2778 14.3035C13.6183 14.3035 14.7467 14.4771 15.693 14.7631Z" fill="#686E78"/>
</svg>
