<svg width="18" height="19" viewBox="0 0 18 19" fill="none" xmlns="http://www.w3.org/2000/svg">
<path fill-rule="evenodd" clip-rule="evenodd" d="M8.5 10.5C10.433 10.5 12 8.933 12 7C12 5.067 10.433 3.5 8.5 3.5C6.567 3.5 5 5.067 5 7C5 8.933 6.567 10.5 8.5 10.5Z" fill="white"/>
<path d="M14 10.5C13.4477 10.5 13 10.9477 13 11.5V12.5H12C11.4477 12.5 11 12.9477 11 13.5C11 14.0523 11.4477 14.5 12 14.5H13V15.5C13 16.0523 13.4477 16.5 14 16.5C14.5523 16.5 15 16.0523 15 15.5V14.5H16C16.5523 14.5 17 14.0523 17 13.5C17 12.9477 16.5523 12.5 16 12.5H15V11.5C15 10.9477 14.5523 10.5 14 10.5Z" fill="white"/>
<path fill-rule="evenodd" clip-rule="evenodd" d="M10.8644 11.8535C10.3422 12.2143 10 12.8172 10 13.5C10 14.6046 10.8954 15.5 12 15.5C12 15.8643 12.0974 16.2058 12.2676 16.5H4.1C4.1 16.5 3 16.5 3 15.5C3 14.5 4.1 11.5 8.5 11.5C9.42805 11.5 10.2093 11.6335 10.8644 11.8535Z" fill="white"/>
</svg>
