<svg width="22" height="22" viewBox="0 0 22 22" fill="none" xmlns="http://www.w3.org/2000/svg">
<path fill-rule="evenodd" clip-rule="evenodd" d="M10.2229 3.66663H10.2482H11.7525H11.7777C12.8094 3.66663 13.6183 3.66662 14.2684 3.71973C14.9304 3.77382 15.4773 3.88578 15.9722 4.138C16.7861 4.55263 17.4476 5.21424 17.8623 6.028C18.1145 6.523 18.2265 7.06989 18.2806 7.73188C18.3337 8.38197 18.3337 9.19081 18.3337 10.2225V10.2226V10.2478V11.7521V11.7774V11.7774C18.3337 12.8091 18.3337 13.6179 18.2806 14.2681C18.2265 14.93 18.1145 15.4769 17.8623 15.9719C17.4476 16.7857 16.7861 17.4473 15.9722 17.8619C15.4773 18.1141 14.9304 18.2261 14.2684 18.2802C13.6183 18.3333 12.8094 18.3333 11.7778 18.3333H11.7777H11.7525H10.2482H10.2229H10.2228C9.19118 18.3333 8.38233 18.3333 7.73225 18.2802C7.07026 18.2261 6.52337 18.1141 6.02836 17.8619C5.2146 17.4473 4.55299 16.7857 4.13836 15.9719C3.88615 15.4769 3.77419 14.93 3.7201 14.2681C3.66698 13.6179 3.66699 12.8091 3.66699 11.7774V11.7521V10.2478V10.2226C3.66699 9.19086 3.66698 8.38199 3.7201 7.73188C3.77419 7.06989 3.88615 6.523 4.13836 6.028C4.55299 5.21424 5.2146 4.55263 6.02836 4.138C6.52337 3.88578 7.07026 3.77382 7.73225 3.71973C8.38236 3.66662 9.19123 3.66663 10.2229 3.66663ZM13.9861 14.7834C14.2064 15.0037 14.5635 15.0037 14.7838 14.7834C15.0041 14.5631 15.0041 14.206 14.7838 13.9857L11.5644 10.7663V7.23928C11.5644 6.92773 11.3119 6.67517 11.0003 6.67517C10.6888 6.67517 10.4362 6.92773 10.4362 7.23928V11C10.4362 11.1496 10.4956 11.2931 10.6015 11.3988L13.9861 14.7834Z" fill="#686E78"/>
</svg>
