<svg width="22" height="22" viewBox="0 0 22 22" fill="none" xmlns="http://www.w3.org/2000/svg">
<path d="M20.4397 13.1429L18.5938 11.7374C18.6173 11.5206 18.6373 11.2672 18.6373 10.9991C18.6373 10.7311 18.6181 10.4777 18.5938 10.2609L20.4414 8.85456C20.7845 8.59056 20.8782 8.12203 20.6598 7.73176L18.7403 4.49772C18.5352 4.1327 18.0859 3.94528 17.6299 4.10906L15.4518 4.96053C15.0343 4.66719 14.5967 4.4195 14.144 4.2215L13.8126 1.97181C13.7582 1.54483 13.3767 1.22217 12.9257 1.22217H9.07668C8.62566 1.22217 8.24497 1.54483 8.19139 1.96528L7.85922 4.22314C7.42075 4.41545 6.98985 4.6599 6.55389 4.96217L4.36998 4.10825C3.96077 3.95425 3.47127 4.12697 3.26794 4.49039L1.34596 7.72848C1.11922 8.10168 1.21292 8.58648 1.56353 8.85701L3.40938 10.2626C3.38008 10.5371 3.36588 10.7759 3.36588 11C3.36588 11.2241 3.38012 11.4628 3.40938 11.7382L1.56184 13.1446C1.21876 13.4094 1.12588 13.8779 1.34427 14.2674L3.26379 17.5014C3.4688 17.8656 3.91394 18.0546 4.37414 17.89L6.5522 17.0386C6.9689 17.3311 7.40651 17.5788 7.85922 17.7776L8.19057 20.0265C8.24493 20.4551 8.62566 20.7777 9.07751 20.7777H12.9265C13.3776 20.7777 13.7591 20.4551 13.8126 20.0346L14.1448 17.7776C14.5833 17.5845 15.0134 17.3408 15.4501 17.0377L17.6341 17.8916C17.7395 17.9316 17.8491 17.9519 17.9621 17.9519C18.2867 17.9519 18.5854 17.7792 18.7361 17.5103L20.6639 14.2592C20.8782 13.8779 20.7844 13.4094 20.4397 13.1429ZM11.0012 14.2592C9.15532 14.2592 7.6542 12.7974 7.6542 10.9999C7.6542 9.20248 9.15532 7.7407 11.0012 7.7407C12.847 7.7407 14.3482 9.20248 14.3482 10.9999C14.3482 12.7974 12.847 14.2592 11.0012 14.2592Z" fill="#686E78"/>
</svg>
