<svg width="22" height="22" viewBox="0 0 22 22" fill="none" xmlns="http://www.w3.org/2000/svg">
<path fill-rule="evenodd" clip-rule="evenodd" d="M10.9999 19.5554C15.725 19.5554 19.5554 15.725 19.5554 10.9999C19.5554 6.27479 15.725 2.44434 10.9999 2.44434C6.27479 2.44434 2.44434 6.27479 2.44434 10.9999C2.44434 15.725 6.27479 19.5554 10.9999 19.5554ZM9.77767 7.33323C9.77767 6.65821 10.3249 6.111 10.9999 6.111C11.6749 6.111 12.2221 6.65821 12.2221 7.33323C12.2221 8.00824 11.6749 8.55545 10.9999 8.55545C10.3249 8.55545 9.77767 8.00824 9.77767 7.33323ZM9.77767 10.9999C9.77767 10.3249 10.3249 9.77767 10.9999 9.77767C11.6749 9.77767 12.2221 10.3249 12.2221 10.9999V14.6666C12.2221 15.3416 11.6749 15.8888 10.9999 15.8888C10.3249 15.8888 9.77767 15.3416 9.77767 14.6666V10.9999Z" fill="#686E78"/>
</svg>
