<svg width="36" height="36" viewBox="0 0 36 36" fill="none" xmlns="http://www.w3.org/2000/svg">
<path d="M9.58579 9.41421L9.41421 9.58579C8.63316 10.3668 8.63316 11.6332 9.41421 12.4142L15 18L9.41421 23.5858C8.63317 24.3668 8.63317 25.6332 9.41421 26.4142L9.58579 26.5858C10.3668 27.3668 11.6332 27.3668 12.4142 26.5858L18 21L23.5858 26.5858C24.3668 27.3668 25.6332 27.3668 26.4142 26.5858L26.5858 26.4142C27.3668 25.6332 27.3668 24.3668 26.5858 23.5858L21 18L26.5858 12.4142C27.3668 11.6332 27.3668 10.3668 26.5858 9.58579L26.4142 9.41421C25.6332 8.63316 24.3668 8.63316 23.5858 9.41421L18 15L12.4142 9.41421C11.6332 8.63317 10.3668 8.63317 9.58579 9.41421Z" fill="#686E78"/>
</svg>
