<svg width="22" height="22" viewBox="0 0 22 22" fill="none" xmlns="http://www.w3.org/2000/svg">
<path fill-rule="evenodd" clip-rule="evenodd" d="M9.90011 19.5556C9.90011 19.5556 8.55566 19.5556 8.55566 18.3333C8.55566 17.1111 9.90011 13.4445 15.2779 13.4445C20.6557 13.4445 22.0001 17.1111 22.0001 18.3333C22.0001 19.5556 20.6557 19.5556 20.6557 19.5556H9.90011Z" fill="#686E78"/>
<path fill-rule="evenodd" clip-rule="evenodd" d="M15.2778 12.2222C17.6403 12.2222 19.5556 10.307 19.5556 7.9444C19.5556 5.58185 17.6403 3.66663 15.2778 3.66663C12.9152 3.66663 11 5.58185 11 7.9444C11 10.307 12.9152 12.2222 15.2778 12.2222Z" fill="#686E78"/>
<path fill-rule="evenodd" clip-rule="evenodd" d="M7.30286 19.5555C7.10574 19.2179 6.99995 18.8177 6.99995 18.3672C6.99995 16.7566 7.95063 15.1001 9.71027 13.9468C8.94051 13.7378 8.04312 13.6141 7.00001 13.6141C1.4 13.6141 0 17.1789 0 18.3672C0 19.5555 1.4 19.5555 1.4 19.5555H7.30286Z" fill="#686E78"/>
<path fill-rule="evenodd" clip-rule="evenodd" d="M6.111 12.2222C8.13605 12.2222 9.77767 10.5806 9.77767 8.55558C9.77767 6.53054 8.13605 4.88892 6.111 4.88892C4.08596 4.88892 2.44434 6.53054 2.44434 8.55558C2.44434 10.5806 4.08596 12.2222 6.111 12.2222Z" fill="#686E78"/>
</svg>
