<svg width="22" height="22" viewBox="0 0 22 22" fill="none" xmlns="http://www.w3.org/2000/svg">
<path d="M13.2644 3.66775L6.44306 5.46887H5.50917L11.6158 2.54136C12.0903 2.31272 12.6668 2.50232 12.9032 2.96143L13.2644 3.66775Z" fill="#686E78"/>
<path d="M15.1283 3.75326C15.2128 3.73095 15.2974 3.7198 15.3819 3.7198C15.8047 3.7198 16.1929 3.99118 16.3082 4.40568L16.6079 5.46888H8.63166L15.1283 3.75326Z" fill="#686E78"/>
<path d="M17.6089 6.11942H3.40704C3.10344 6.11942 2.83253 6.25512 2.65572 6.46887C2.57499 6.56739 2.51347 6.68076 2.4789 6.8053C2.45781 6.88337 2.44434 6.96515 2.44434 7.0488V17.4039C2.44434 17.9169 2.87472 18.3332 3.40506 18.3332H17.6071C18.1374 18.3332 18.5678 17.9169 18.5678 17.4039V14.8109H12.8666C11.9654 14.8109 11.2333 14.1027 11.2333 13.231V11.1641C11.2333 10.7365 11.4101 10.3481 11.6965 10.0637C11.9501 9.81089 12.2902 9.63988 12.6707 9.59713C12.7341 9.58972 12.7994 9.58598 12.8647 9.58598H18.5678V7.0488C18.5697 6.53578 18.1393 6.11942 17.6089 6.11942Z" fill="#686E78"/>
<path fill-rule="evenodd" clip-rule="evenodd" d="M18.9059 10.2812C19.0327 10.3239 19.1462 10.389 19.2422 10.4745C19.4343 10.6436 19.5554 10.889 19.5554 11.1604V13.2291C19.5554 13.5005 19.4343 13.7458 19.2422 13.915C19.1462 14.0005 19.0327 14.0674 18.9059 14.1083C18.8079 14.1399 18.7042 14.1585 18.5946 14.1585H12.8665C12.3362 14.1585 11.9058 13.7421 11.9058 13.2291V11.1604C11.9058 10.6473 12.3362 10.231 12.8665 10.231H18.5946C18.7042 10.231 18.8079 10.2496 18.9059 10.2812ZM14.3922 12.8444C14.6574 12.8444 14.8727 12.6362 14.8727 12.3797V12.0711C14.8727 11.8146 14.6574 11.6064 14.3922 11.6064H14.0733C13.9619 11.6064 13.86 11.6455 13.7773 11.7068C13.664 11.7904 13.5929 11.9224 13.5929 12.0711V12.3797C13.5929 12.6362 13.8081 12.8444 14.0733 12.8444H14.3922Z" fill="#686E78"/>
</svg>
