<svg width="66" height="66" viewBox="0 0 66 66" fill="none" xmlns="http://www.w3.org/2000/svg">
<circle cx="33" cy="33" r="33" fill="#CBCFD6"/>
<path fill-rule="evenodd" clip-rule="evenodd" d="M21.2959 22.5333L19 20.2374L20.2373 19L47 45.7627L45.7626 47L42.2627 43.5H21.625C20.1775 43.5 19 42.3225 19 40.875V25.1251C19 23.7902 20.005 22.6971 21.2959 22.5333ZM20.75 40.8751C20.75 41.3578 21.1422 41.75 21.625 41.75L40.5127 41.7501L37.258 38.4954C36.075 39.4189 34.6137 40.0001 33 40.0001C29.1403 40.0001 26 36.8598 26 33.0001C26 31.3866 26.5852 29.929 27.5091 28.7465L23.0127 24.2501H21.625C21.1422 24.2501 20.75 24.6423 20.75 25.1251V40.8751ZM36.0161 37.2535L28.7512 29.9886C28.1372 30.8436 27.7499 31.8692 27.75 33.0001C27.75 35.8951 30.105 38.25 33 38.25C34.1311 38.25 35.1607 37.8673 36.0161 37.2535Z" fill="white"/>
<path d="M39.8505 22.5001H44.3751C45.8225 22.5001 47 23.6775 47 25.125V40.875C47 41.5447 46.7403 42.15 46.3261 42.6142L45.0789 41.367C45.1785 41.2249 45.25 41.0615 45.25 40.875V25.1251C45.25 24.6423 44.8578 24.2501 44.375 24.2501H39.125C38.6414 24.2501 38.2501 23.8587 38.2501 23.3751C38.2501 22.8923 37.8578 22.5001 37.3751 22.5001H28.6251C28.1424 22.5001 27.7502 22.8923 27.7502 23.3751C27.7502 23.5619 27.6789 23.7253 27.5794 23.8674L26.1715 22.4595C26.545 21.4638 27.5009 20.7501 28.6251 20.7501H37.3751C38.5158 20.7501 39.4891 21.4815 39.8505 22.5001Z" fill="white"/>
<path d="M43.2437 27.4938C43.5854 27.152 43.5854 26.598 43.2437 26.2563C42.9019 25.9146 42.3479 25.9146 42.0062 26.2563C41.6645 26.598 41.6645 27.152 42.0062 27.4938C42.3479 27.8355 42.9019 27.8355 43.2437 27.4938Z" fill="white"/>
<path d="M39.4436 35.7318C39.8011 34.8919 39.9999 33.9689 39.9999 33C39.9999 29.1402 36.8596 26 32.9999 26C32.031 26 31.1081 26.1987 30.2681 26.5562L31.6575 27.9457C32.0886 27.8308 32.533 27.7499 32.9999 27.7499C35.8949 27.7499 38.2499 30.1049 38.2499 32.9999C38.2499 33.4668 38.169 33.9112 38.0542 34.3423L39.4436 35.7318Z" fill="white"/>
</svg>
