<svg width="26" height="26" viewBox="0 0 26 26" fill="none" xmlns="http://www.w3.org/2000/svg">
<circle cx="12.9999" cy="13" r="9.1" fill="#A1A8B4"/>
<path d="M13.2321 12.62C13.2321 12.8329 13.4819 12.9395 13.6281 12.789L15.5237 10.8366C15.7954 10.5566 15.7954 10.1028 15.5237 9.82289L13.6281 7.87051C13.4819 7.71999 13.2321 7.82659 13.2321 8.03945V9.13926C10.5158 9.23768 9.33804 11.0684 9.10212 12.942C9.07322 13.1714 9.36127 13.2808 9.52002 13.1171C10.449 12.1589 11.8288 11.5267 13.2321 11.7232V12.62Z" fill="white"/>
<path d="M12.7681 13.3801C12.7681 13.1672 12.5183 13.0606 12.3721 13.2111L10.4765 15.1635C10.2048 15.4434 10.2048 15.8973 10.4765 16.1772L12.3721 18.1296C12.5183 18.2801 12.7681 18.1735 12.7681 17.9606L12.7681 16.8608C15.4844 16.7624 16.6622 14.9317 16.8981 13.0581C16.927 12.8287 16.6389 12.7193 16.4802 12.883C15.5512 13.8412 14.1714 14.4734 12.7681 14.2769V13.3801Z" fill="white"/>
</svg>
