<svg width="11" height="10" viewBox="0 0 11 10" fill="none" xmlns="http://www.w3.org/2000/svg">
<path d="M5.5 3.5L2.75 0.75C2.33579 0.335786 1.66421 0.335787 1.25 0.75C0.835787 1.16421 0.835786 1.83579 1.25 2.25L4 5L1.25 7.75C0.835786 8.16421 0.835787 8.83579 1.25 9.25C1.66421 9.66421 2.33579 9.66421 2.75 9.25L5.5 6.5L8.25 9.25C8.66421 9.66421 9.33579 9.66421 9.75 9.25C10.1642 8.83579 10.1642 8.16421 9.75 7.75L7 5L9.75 2.25C10.1642 1.83579 10.1642 1.16421 9.75 0.75C9.33579 0.335787 8.66421 0.335786 8.25 0.749999L5.5 3.5Z" fill="#EE614D"/>
</svg>
