<svg width="22" height="22" viewBox="0 0 22 22" fill="none" xmlns="http://www.w3.org/2000/svg">
<path d="M18.3333 6.55509L20.3883 8.47317C20.6466 8.73065 20.7778 9.04272 20.7778 9.37028C20.7778 10.0441 20.2294 10.5925 19.5556 10.5925H18.3333V17.5184C18.3333 18.6413 17.4191 19.5555 16.2963 19.5555H14.4444C13.8922 19.5555 13.4444 19.1078 13.4444 18.5555V14.6667C13.4444 13.3166 12.35 12.2222 11 12.2222C9.64997 12.2222 8.55556 13.3166 8.55556 14.6667V18.5555C8.55556 19.1078 8.10784 19.5555 7.55556 19.5555H5.7037C4.58089 19.5555 3.66667 18.6413 3.66667 17.5184V10.5925H2.44444C1.77059 10.5925 1.22222 10.0441 1.22222 9.37028C1.22222 9.04272 1.35341 8.73065 1.59133 8.49272L10.4443 0.219084C10.7572 -0.0734351 11.2428 -0.0726203 11.5565 0.219084L14.2593 2.7442V1.62953C14.2593 1.17975 14.6243 0.814714 15.0741 0.814714H17.5185C17.9683 0.814714 18.3333 1.17975 18.3333 1.62953V6.55509Z" fill="#686E78"/>
</svg>
