<svg width="28" height="28" viewBox="0 0 28 28" fill="none" xmlns="http://www.w3.org/2000/svg">
<path fill-rule="evenodd" clip-rule="evenodd" d="M18.072 19.4938C16.6937 20.4438 15.0231 21 13.2225 21C8.49744 21 4.66699 17.1696 4.66699 12.4445C4.66699 7.71937 8.49744 3.88892 13.2225 3.88892C17.9477 3.88892 21.7781 7.71937 21.7781 12.4445C21.7781 14.245 21.2219 15.9157 20.2719 17.294L24.4336 21.4556C25.0411 22.0631 25.0411 23.048 24.4336 23.6555C23.8261 24.263 22.8412 24.263 22.2337 23.6555L18.072 19.4938ZM18.667 12.4445C18.667 15.4514 16.2294 17.8889 13.2225 17.8889C10.2157 17.8889 7.7781 15.4514 7.7781 12.4445C7.7781 9.43759 10.2157 7.00003 13.2225 7.00003C16.2294 7.00003 18.667 9.43759 18.667 12.4445Z" fill="white"/>
</svg>
