<svg width="18" height="18" viewBox="0 0 18 18" fill="none" xmlns="http://www.w3.org/2000/svg">
<path d="M9 3C5.69166 3 3 5.69166 3 9C3 12.3083 5.69166 15 9 15C12.3083 15 15 12.3083 15 9C15 5.69166 12.3083 3 9 3ZM4.6853 8.02685C4.17825 8.31954 3.8088 8.61832 3.50147 8.97089C3.5107 7.21336 4.3507 5.6523 5.64567 4.65115C6.25866 4.67327 6.78626 4.83518 7.43531 5.20995C8.094 5.59031 8.61841 6.21996 8.87402 6.93797C9.06827 7.48392 9.08548 8.03067 8.94056 8.49811C8.0018 7.42875 6.14039 7.1865 4.6853 8.02685ZM9 14.5C8.26179 14.5 7.55817 14.3516 6.91439 14.0866C6.62428 13.5421 6.49999 13.0029 6.49999 12.25C6.49999 10.8431 7.45751 9.55205 8.59781 9.29829C8.40241 9.88083 8.41697 10.5607 8.65502 11.2297C8.9497 12.0579 9.55467 12.7844 10.3147 13.2232C10.8195 13.5147 11.2613 13.6848 11.7184 13.7751C10.9155 14.2339 9.98904 14.5 9 14.5ZM13.0647 9.54005C11.8476 10.2428 10.2569 10.0571 9.4662 9.19913C10.8607 8.9201 12 7.43018 12 5.74999C12 5.16792 11.9266 4.7007 11.7768 4.26047C13.2023 5.09895 14.2161 6.55837 14.4453 8.26659C14.1193 8.78796 13.7149 9.16455 13.0647 9.54005Z" fill="#3B3E43"/>
</svg>
