<svg width="182" height="36" viewBox="0 0 182 36" fill="none" xmlns="http://www.w3.org/2000/svg">
<g clip-path="url(#clip0_3050_23381)">
<path d="M45.1649 6.57227V28.182H41.6631V6.57227H45.1649ZM53.6384 6.57227L48.2245 19.3214H44.364L43.8859 15.2102H46.3362L49.4076 6.57227H53.6384ZM49.9693 28.182L46.4076 18.5645L48.81 15.2993L54.1165 28.182H49.9693Z" fill="#212224"/>
<path d="M66.8091 15.7V19.3065C66.8091 20.8303 66.6578 22.1661 66.3549 23.3138C66.0601 24.4517 65.6378 25.4065 65.0881 26.1783C64.5462 26.9402 63.889 27.5141 63.1162 27.9C62.3512 28.2859 61.5026 28.4788 60.5704 28.4788C59.6381 28.4788 58.7858 28.2859 58.013 27.9C57.248 27.5141 56.5867 26.9402 56.0288 26.1783C55.4791 25.4065 55.053 24.4517 54.7501 23.3138C54.4475 22.1661 54.2959 20.8303 54.2959 19.3065V15.7C54.2959 14.1366 54.4434 12.7712 54.7382 11.6036C55.033 10.4262 55.4593 9.44662 56.0169 8.66495C56.5748 7.87335 57.2361 7.2797 58.0011 6.88392C58.7657 6.47824 59.6143 6.27539 60.5465 6.27539C61.4788 6.27539 62.3274 6.47824 63.092 6.88392C63.857 7.2797 64.5183 7.87335 65.0762 8.66495C65.6338 9.44662 66.0601 10.4262 66.3549 11.6036C66.6578 12.7712 66.8091 14.1366 66.8091 15.7ZM63.3311 19.3065V15.6703C63.3311 14.6413 63.2715 13.7656 63.1519 13.0433C63.0325 12.3111 62.853 11.7125 62.614 11.2474C62.375 10.7824 62.0843 10.441 61.7416 10.2233C61.3992 10.0056 61.0008 9.8968 60.5465 9.8968C60.0923 9.8968 59.6901 10.0056 59.3396 10.2233C58.9969 10.441 58.7062 10.7824 58.4672 11.2474C58.236 11.7125 58.0606 12.3111 57.9412 13.0433C57.8297 13.7656 57.7739 14.6413 57.7739 15.6703V19.3065C57.7739 20.296 57.8335 21.142 57.9531 21.8445C58.0728 22.547 58.252 23.1209 58.491 23.5661C58.73 24.0114 59.0207 24.3428 59.3634 24.5605C59.7139 24.7683 60.1165 24.8722 60.5704 24.8722C61.0167 24.8722 61.4111 24.7683 61.7535 24.5605C62.1044 24.3428 62.3951 24.0114 62.6259 23.5661C62.8571 23.1209 63.0325 22.547 63.1519 21.8445C63.2715 21.142 63.3311 20.296 63.3311 19.3065Z" fill="#212224"/>
<path d="M78.6526 6.57227V10.1788H72.39V28.182H68.9004V6.57227H78.6526Z" fill="#212224"/>
<path d="M90.1619 24.5903V28.182H79.9078V24.5903H90.1619ZM80.8996 24.5903V33.4954H77.613L77.4219 24.5903H80.8996ZM92.6958 24.5903L92.385 33.4954H89.182V24.5903H92.6958ZM88.3572 6.57227V10.1788H81.33V6.57227H88.3572ZM90.8789 6.57227V28.182H87.4012V6.57227H90.8789ZM80.9115 6.57227H84.4015L83.9711 15.418C83.9075 16.8824 83.8 18.1737 83.6484 19.2917C83.5049 20.3999 83.3258 21.3696 83.1106 22.2007C82.9035 23.0319 82.6726 23.7591 82.4176 24.3825C82.1626 24.9959 81.8917 25.5303 81.6047 25.9854C81.3181 26.4307 81.0233 26.8314 80.7204 27.1876C80.4175 27.5438 80.119 27.8753 79.8242 28.182H77.9237V24.5903H78.5931C78.7924 24.3528 78.9916 24.0312 79.1908 23.6256C79.3897 23.21 79.573 22.6608 79.7406 21.9781C79.9078 21.2954 80.0551 20.4197 80.1826 19.3511C80.3101 18.2825 80.4097 16.9715 80.4814 15.418L80.9115 6.57227Z" fill="#212224"/>
<path d="M100.525 10.4312L96.7838 28.182H93.0908L98.5286 6.57227H100.835L100.525 10.4312ZM103.476 28.182L99.7117 10.4312L99.3653 6.57227H101.708L107.193 28.182H103.476ZM103.608 20.1229V23.7295H95.756V20.1229H103.608Z" fill="#212224"/>
<path d="M119.385 18.7574H115.823L115.811 15.611H118.847C119.325 15.611 119.716 15.512 120.018 15.3141C120.329 15.1063 120.556 14.8046 120.699 14.4088C120.851 14.0031 120.927 13.5133 120.927 12.9394C120.927 12.2765 120.859 11.7471 120.723 11.3513C120.588 10.9457 120.369 10.6488 120.066 10.4608C119.763 10.2728 119.369 10.1788 118.883 10.1788H117.018V28.182H113.517V6.57227H118.883C119.751 6.57227 120.528 6.691 121.213 6.92848C121.899 7.16595 122.48 7.52711 122.958 8.01195C123.436 8.49676 123.799 9.11023 124.046 9.85234C124.301 10.5944 124.428 11.4701 124.428 12.4793C124.428 13.3698 124.285 14.1911 123.998 14.9431C123.711 15.6951 123.261 16.3085 122.648 16.7835C122.042 17.2584 121.249 17.5256 120.269 17.5849L119.385 18.7574ZM119.265 28.182H114.831L116.23 24.5903H119.265C119.727 24.5903 120.102 24.4666 120.389 24.2192C120.675 23.9719 120.883 23.6404 121.01 23.2248C121.138 22.7993 121.201 22.3145 121.201 21.7703C121.201 21.1569 121.141 20.6226 121.022 20.1674C120.911 19.7123 120.723 19.3659 120.46 19.1285C120.197 18.8811 119.843 18.7574 119.397 18.7574H116.385L116.409 15.611H120.066L120.891 16.8577C121.823 16.8181 122.568 17.0407 123.126 17.5256C123.683 18.0005 124.082 18.6238 124.321 19.3956C124.568 20.1575 124.691 20.9689 124.691 21.8297C124.691 23.2149 124.48 24.3825 124.058 25.3324C123.643 26.2723 123.034 26.9848 122.229 27.4696C121.424 27.9445 120.436 28.182 119.265 28.182Z" fill="#212224"/>
<path d="M140.217 20.9848H143.695C143.647 22.6075 143.384 23.9779 142.906 25.096C142.428 26.2042 141.747 27.0452 140.863 27.6191C139.986 28.193 138.926 28.4799 137.683 28.4799C136.719 28.4799 135.863 28.2821 135.114 27.8863C134.365 27.4806 133.728 26.8869 133.202 26.1053C132.676 25.3236 132.278 24.3589 132.007 23.2111C131.744 22.0534 131.612 20.7226 131.612 19.2187V15.5527C131.612 14.0487 131.752 12.7179 132.03 11.5603C132.317 10.4026 132.724 9.43291 133.25 8.65124C133.783 7.85968 134.425 7.26602 135.174 6.87024C135.931 6.46457 136.783 6.26172 137.731 6.26172C138.998 6.26172 140.058 6.55855 140.91 7.15223C141.763 7.74589 142.42 8.61167 142.882 9.74956C143.352 10.8775 143.635 12.2578 143.731 13.8904H140.241C140.217 12.8614 140.122 12.055 139.954 11.4712C139.795 10.8775 139.54 10.4619 139.189 10.2245C138.839 9.97714 138.353 9.85345 137.731 9.85345C137.269 9.85345 136.871 9.95732 136.536 10.1651C136.201 10.363 135.927 10.6846 135.712 11.1299C135.496 11.5751 135.337 12.1589 135.234 12.8812C135.138 13.6035 135.09 14.4841 135.09 15.523V19.2187C135.09 20.2378 135.134 21.1085 135.222 21.8308C135.309 22.5432 135.449 23.127 135.64 23.5822C135.831 24.0373 136.09 24.3688 136.417 24.5765C136.751 24.7843 137.173 24.8882 137.683 24.8882C138.273 24.8882 138.747 24.7794 139.106 24.5617C139.472 24.344 139.743 23.9532 139.919 23.3892C140.094 22.8252 140.193 22.0238 140.217 20.9848Z" fill="#212224"/>
<path d="M155.372 24.5903V28.182H147.807V24.5903H155.372ZM148.894 6.57227V28.182H145.393V6.57227H148.894ZM154.356 15.329V18.8168H147.807V15.329H154.356ZM155.348 6.57227V10.1788H147.807V6.57227H155.348Z" fill="#212224"/>
<path d="M164.096 6.57227V28.182H160.619V6.57227H164.096ZM168.423 6.57227V10.1788H156.376V6.57227H168.423Z" fill="#212224"/>
<path d="M173.24 20.2416L178.678 6.57227H182V28.182H178.618V14.6759L173.228 28.182H169.846V6.57227H173.24V20.2416Z" fill="#212224"/>
<path d="M23.2543 7.54339C22.8947 7.36317 22.5231 7.2002 22.14 7.05582C20.8355 6.56106 19.4355 6.29622 18.0018 6.29688C16.566 6.29575 15.1639 6.56093 13.8576 7.05667C13.2238 7.29567 12.6212 7.58558 12.0531 7.92032L12.0543 7.92301C9.5071 9.42572 7.52436 11.8892 6.69844 14.9716C6.48928 15.7521 6.36423 16.5354 6.31768 17.3118L6.31683 17.3117C6.30336 17.541 6.29666 17.7713 6.29688 18.0026C6.29632 19.4358 6.56111 20.8353 7.05567 22.1395C8.27047 25.3626 10.8016 27.7829 13.8564 28.9424C15.1634 29.4386 16.5662 29.7039 18.0027 29.7027C18.0386 29.7027 18.0744 29.7024 18.1102 29.7021C19.0746 29.6923 20.0535 29.5623 21.0281 29.3011C23.9098 28.529 26.2506 26.7458 27.7711 24.4355L27.7737 24.4371C28.2402 23.7286 28.6346 22.9605 28.9437 22.1405C29.4386 20.836 29.7035 19.4361 29.7029 18.0025C29.7042 16.5659 29.4388 15.1631 28.9426 13.8561C28.7987 13.477 28.6354 13.1059 28.4535 12.7445C25.9534 12.0151 23.9828 10.0439 23.2543 7.54339Z" fill="#212224"/>
<path d="M10.4234 20.0084C10.3789 19.8993 10.3366 19.789 10.2966 19.6775C10.2417 19.5253 10.1914 19.3719 10.1458 19.2177L10.1463 19.2176C9.99238 18.6953 9.88737 18.1503 9.83719 17.5876C9.67803 15.8035 10.0937 14.1096 10.9286 12.6934L14.3325 14.987C14.1581 15.7429 14.0984 16.5414 14.1715 17.3608C14.209 17.7806 14.2798 18.1896 14.3812 18.5854L10.4234 20.0084Z" fill="white"/>
<path d="M14.8065 13.5883L12.2021 11.0581C12.3216 10.9405 12.4454 10.8262 12.5734 10.7154C13.2974 10.0863 14.1377 9.58685 15.0628 9.25508C15.4582 9.11268 15.8612 9.0038 16.2679 8.92773L17.1201 10.7256C16.9651 10.8398 16.8149 10.9602 16.6699 11.0863C16.3489 11.364 16.0572 11.6659 15.7955 11.9874L15.7968 11.9887C15.4021 12.4742 15.0685 13.0116 14.8065 13.5883Z" fill="white"/>
<path d="M24.2598 1.11825C22.3103 0.395098 20.2014 0 18.0002 0C8.05897 0 0 8.05887 0 18C0 27.9411 8.05897 36 18.0002 36C27.9414 36 36.0003 27.9411 36.0003 18C36.0003 15.7988 35.6053 13.69 34.8823 11.7404C34.1396 12.2428 33.3041 12.6183 32.4067 12.8355C32.9852 14.4488 33.3004 16.1876 33.3004 18C33.3004 26.45 26.4502 33.3 18.0002 33.3C9.55014 33.3 2.70003 26.45 2.70003 18C2.70003 9.55005 9.55014 2.7 18.0002 2.7C19.8126 2.7 21.5514 3.01513 23.1648 3.59358C23.382 2.69628 23.7574 1.86078 24.2598 1.11825Z" fill="#212224"/>
<path d="M30.6006 9.90039C33.0859 9.90039 35.1007 7.88567 35.1007 5.40039C35.1007 2.91511 33.0859 0.900391 30.6006 0.900391C28.1153 0.900391 26.1006 2.91511 26.1006 5.40039C26.1006 7.88567 28.1153 9.90039 30.6006 9.90039Z" fill="#4D89EE"/>
</g>
<defs>
<clipPath id="clip0_3050_23381">
<rect width="182" height="36" fill="white"/>
</clipPath>
</defs>
</svg>
