<svg width="182" height="36" viewBox="0 0 182 36" fill="none" xmlns="http://www.w3.org/2000/svg">
<g clip-path="url(#clip0_2987_30558)">
<path d="M45.1649 6.57251V28.1822H41.6631V6.57251H45.1649ZM53.6384 6.57251L48.2245 19.3217H44.364L43.8859 15.2105H46.3362L49.4076 6.57251H53.6384ZM49.9693 28.1822L46.4076 18.5647L48.81 15.2995L54.1165 28.1822H49.9693Z" fill="white"/>
<path d="M66.8091 15.7003V19.3069C66.8091 20.8307 66.6578 22.1664 66.3549 23.3142C66.0601 24.4521 65.6378 25.4069 65.0881 26.1787C64.5462 26.9405 63.889 27.5144 63.1162 27.9003C62.3512 28.2862 61.5026 28.4791 60.5704 28.4791C59.6381 28.4791 58.7858 28.2862 58.013 27.9003C57.248 27.5144 56.5867 26.9405 56.0288 26.1787C55.4791 25.4069 55.053 24.4521 54.7501 23.3142C54.4475 22.1664 54.2959 20.8307 54.2959 19.3069V15.7003C54.2959 14.137 54.4434 12.7715 54.7382 11.604C55.033 10.4265 55.4593 9.44698 56.0169 8.66531C56.5748 7.87372 57.2361 7.28006 58.0011 6.88428C58.7657 6.47861 59.6143 6.27576 60.5465 6.27576C61.4788 6.27576 62.3274 6.47861 63.092 6.88428C63.857 7.28006 64.5183 7.87372 65.0762 8.66531C65.6338 9.44698 66.0601 10.4265 66.3549 11.604C66.6578 12.7715 66.8091 14.137 66.8091 15.7003ZM63.3311 19.3069V15.6707C63.3311 14.6416 63.2715 13.7659 63.1519 13.0436C63.0325 12.3115 62.853 11.7128 62.614 11.2478C62.375 10.7827 62.0843 10.4414 61.7416 10.2237C61.3992 10.006 61.0008 9.89717 60.5465 9.89717C60.0923 9.89717 59.6901 10.006 59.3396 10.2237C58.9969 10.4414 58.7062 10.7827 58.4672 11.2478C58.236 11.7128 58.0606 12.3115 57.9412 13.0436C57.8297 13.7659 57.7739 14.6416 57.7739 15.6707V19.3069C57.7739 20.2963 57.8335 21.1423 57.9531 21.8448C58.0728 22.5474 58.252 23.1213 58.491 23.5665C58.73 24.0118 59.0207 24.3432 59.3634 24.5609C59.7139 24.7687 60.1165 24.8726 60.5704 24.8726C61.0167 24.8726 61.4111 24.7687 61.7535 24.5609C62.1044 24.3432 62.3951 24.0118 62.6259 23.5665C62.8571 23.1213 63.0325 22.5474 63.1519 21.8448C63.2715 21.1423 63.3311 20.2963 63.3311 19.3069Z" fill="white"/>
<path d="M78.6526 6.57251V10.1791H72.39V28.1822H68.9004V6.57251H78.6526Z" fill="white"/>
<path d="M90.1619 24.5905V28.1822H79.9078V24.5905H90.1619ZM80.8996 24.5905V33.4956H77.613L77.4219 24.5905H80.8996ZM92.6958 24.5905L92.385 33.4956H89.182V24.5905H92.6958ZM88.3572 6.57251V10.1791H81.33V6.57251H88.3572ZM90.8789 6.57251V28.1822H87.4012V6.57251H90.8789ZM80.9115 6.57251H84.4015L83.9711 15.4183C83.9075 16.8827 83.8 18.1739 83.6484 19.292C83.5049 20.4002 83.3258 21.3698 83.1106 22.201C82.9035 23.0321 82.6726 23.7594 82.4176 24.3827C82.1626 24.9962 81.8917 25.5305 81.6047 25.9857C81.3181 26.4309 81.0233 26.8316 80.7204 27.1878C80.4175 27.544 80.119 27.8755 79.8242 28.1822H77.9237V24.5905H78.5931C78.7924 24.353 78.9916 24.0315 79.1908 23.6258C79.3897 23.2102 79.573 22.6611 79.7406 21.9784C79.9078 21.2956 80.0551 20.42 80.1826 19.3514C80.3101 18.2827 80.4097 16.9717 80.4814 15.4183L80.9115 6.57251Z" fill="white"/>
<path d="M100.525 10.4314L96.7838 28.1822H93.0908L98.5286 6.57251H100.835L100.525 10.4314ZM103.476 28.1822L99.7117 10.4314L99.3653 6.57251H101.708L107.193 28.1822H103.476ZM103.608 20.1231V23.7297H95.756V20.1231H103.608Z" fill="white"/>
<path d="M119.385 18.7577H115.823L115.811 15.6112H118.847C119.325 15.6112 119.716 15.5122 120.018 15.3144C120.329 15.1066 120.556 14.8048 120.699 14.409C120.851 14.0033 120.927 13.5136 120.927 12.9397C120.927 12.2767 120.859 11.7474 120.723 11.3516C120.588 10.9459 120.369 10.6491 120.066 10.4611C119.763 10.2731 119.369 10.1791 118.883 10.1791H117.018V28.1822H113.517V6.57251H118.883C119.751 6.57251 120.528 6.69125 121.213 6.92872C121.899 7.1662 122.48 7.52736 122.958 8.0122C123.436 8.49701 123.799 9.11048 124.046 9.85258C124.301 10.5946 124.428 11.4703 124.428 12.4796C124.428 13.3701 124.285 14.1913 123.998 14.9433C123.711 15.6953 123.261 16.3088 122.648 16.7837C122.042 17.2587 121.249 17.5258 120.269 17.5852L119.385 18.7577ZM119.265 28.1822H114.831L116.23 24.5905H119.265C119.727 24.5905 120.102 24.4668 120.389 24.2195C120.675 23.9721 120.883 23.6406 121.01 23.2251C121.138 22.7996 121.201 22.3148 121.201 21.7706C121.201 21.1571 121.141 20.6228 121.022 20.1676C120.911 19.7125 120.723 19.3662 120.46 19.1287C120.197 18.8813 119.843 18.7577 119.397 18.7577H116.385L116.409 15.6112H120.066L120.891 16.8579C121.823 16.8183 122.568 17.041 123.126 17.5258C123.683 18.0008 124.082 18.6241 124.321 19.3959C124.568 20.1578 124.691 20.9691 124.691 21.8299C124.691 23.2152 124.48 24.3827 124.058 25.3326C123.643 26.2726 123.034 26.985 122.229 27.4699C121.424 27.9448 120.436 28.1822 119.265 28.1822Z" fill="white"/>
<path d="M140.217 20.984H143.695C143.647 22.6067 143.384 23.9771 142.906 25.0952C142.428 26.2034 141.747 27.0444 140.863 27.6183C139.986 28.1922 138.926 28.4791 137.683 28.4791C136.719 28.4791 135.863 28.2812 135.114 27.8854C134.365 27.4798 133.728 26.8861 133.202 26.1044C132.676 25.3227 132.278 24.358 132.007 23.2103C131.744 22.0526 131.612 20.7218 131.612 19.2178V15.5519C131.612 14.0479 131.752 12.7171 132.03 11.5594C132.317 10.4017 132.724 9.43206 133.25 8.65039C133.783 7.85883 134.425 7.26517 135.174 6.86939C135.931 6.46372 136.783 6.26086 137.731 6.26086C138.998 6.26086 140.058 6.55769 140.91 7.15138C141.763 7.74503 142.42 8.61082 142.882 9.7487C143.352 10.8767 143.635 12.257 143.731 13.8896H140.241C140.217 12.8605 140.122 12.0541 139.954 11.4703C139.795 10.8767 139.54 10.4611 139.189 10.2237C138.839 9.97628 138.353 9.8526 137.731 9.8526C137.269 9.8526 136.871 9.95647 136.536 10.1643C136.201 10.3622 135.927 10.6837 135.712 11.129C135.496 11.5742 135.337 12.158 135.234 12.8803C135.138 13.6026 135.09 14.4832 135.09 15.5222V19.2178C135.09 20.2369 135.134 21.1076 135.222 21.83C135.309 22.5424 135.449 23.1261 135.64 23.5813C135.831 24.0364 136.09 24.3679 136.417 24.5757C136.751 24.7835 137.173 24.8874 137.683 24.8874C138.273 24.8874 138.747 24.7785 139.106 24.5609C139.472 24.3432 139.743 23.9523 139.919 23.3884C140.094 22.8244 140.193 22.0229 140.217 20.984Z" fill="white"/>
<path d="M155.372 24.5905V28.1822H147.807V24.5905H155.372ZM148.894 6.57251V28.1822H145.393V6.57251H148.894ZM154.356 15.3292V18.817H147.807V15.3292H154.356ZM155.348 6.57251V10.1791H147.807V6.57251H155.348Z" fill="white"/>
<path d="M164.096 6.57251V28.1822H160.619V6.57251H164.096ZM168.423 6.57251V10.1791H156.376V6.57251H168.423Z" fill="white"/>
<path d="M173.24 20.2419L178.678 6.57251H182V28.1822H178.618V14.6762L173.228 28.1822H169.846V6.57251H173.24V20.2419Z" fill="white"/>
<path d="M23.2543 7.54363C22.8947 7.36341 22.5231 7.20044 22.14 7.05606C20.8355 6.5613 19.4355 6.29647 18.0018 6.29712C16.566 6.296 15.1639 6.56117 13.8576 7.05691C13.2238 7.29592 12.6212 7.58583 12.0531 7.92057L12.0543 7.92326C9.5071 9.42596 7.52436 11.8895 6.69844 14.9718C6.48928 15.7524 6.36423 16.5356 6.31768 17.312L6.31683 17.312C6.30336 17.5412 6.29666 17.7716 6.29688 18.0028C6.29632 19.436 6.56111 20.8356 7.05567 22.1398C8.27047 25.3629 10.8016 27.7831 13.8564 28.9427C15.1634 29.4388 16.5662 29.7042 18.0027 29.7029C18.0386 29.7029 18.0744 29.7026 18.1102 29.7023C19.0746 29.6926 20.0535 29.5625 21.0281 29.3013C23.9098 28.5292 26.2506 26.746 27.7711 24.4357L27.7737 24.4374C28.2402 23.7288 28.6346 22.9607 28.9437 22.1407C29.4386 20.8362 29.7035 19.4363 29.7029 18.0027C29.7042 16.5661 29.4388 15.1633 28.9426 13.8563C28.7987 13.4772 28.6354 13.1062 28.4535 12.7448C25.9534 12.0153 23.9828 10.0441 23.2543 7.54363Z" fill="white"/>
<path d="M10.4234 20.0081C10.3789 19.899 10.3366 19.7887 10.2966 19.6772C10.2417 19.5249 10.1914 19.3716 10.1458 19.2174L10.1463 19.2172C9.99238 18.6949 9.88737 18.1499 9.83719 17.5872C9.67803 15.8031 10.0937 14.1092 10.9286 12.693L14.3325 14.9867C14.1581 15.7426 14.0984 16.5411 14.1715 17.3604C14.209 17.7802 14.2798 18.1893 14.3812 18.585L10.4234 20.0081Z" fill="#212224"/>
<path d="M14.8065 13.5873L12.2021 11.0571C12.3216 10.9396 12.4454 10.8253 12.5734 10.7145C13.2974 10.0853 14.1377 9.58587 15.0628 9.25411C15.4582 9.1117 15.8612 9.00283 16.2679 8.92676L17.1201 10.7246C16.9651 10.8389 16.8149 10.9592 16.6699 11.0853C16.3489 11.3631 16.0572 11.6649 15.7955 11.9864L15.7968 11.9877C15.4021 12.4732 15.0685 13.0106 14.8065 13.5873Z" fill="#212224"/>
<path d="M24.2598 1.11825C22.3103 0.395098 20.2014 0 18.0002 0C8.05897 0 0 8.05887 0 18C0 27.9411 8.05897 36 18.0002 36C27.9414 36 36.0003 27.9411 36.0003 18C36.0003 15.7988 35.6053 13.69 34.8823 11.7404C34.1396 12.2428 33.3041 12.6183 32.4067 12.8355C32.9852 14.4488 33.3004 16.1876 33.3004 18C33.3004 26.45 26.4502 33.3 18.0002 33.3C9.55014 33.3 2.70003 26.45 2.70003 18C2.70003 9.55005 9.55014 2.7 18.0002 2.7C19.8126 2.7 21.5514 3.01513 23.1648 3.59358C23.382 2.69628 23.7574 1.86078 24.2598 1.11825Z" fill="white"/>
<path d="M30.6006 9.90002C33.0859 9.90002 35.1007 7.88531 35.1007 5.40002C35.1007 2.91474 33.0859 0.900024 30.6006 0.900024C28.1153 0.900024 26.1006 2.91474 26.1006 5.40002C26.1006 7.88531 28.1153 9.90002 30.6006 9.90002Z" fill="#4D89EE"/>
</g>
<defs>
<clipPath id="clip0_2987_30558">
<rect width="182" height="36" fill="white"/>
</clipPath>
</defs>
</svg>
