<svg width="12" height="12" viewBox="0 0 12 12" fill="none" xmlns="http://www.w3.org/2000/svg">
<g clip-path="url(#clip0_3312_5190)">
<path d="M9 11.5H2C1.173 11.5 0.5 10.827 0.5 10V3C0.5 2.173 1.173 1.5 2 1.5H6C6.276 1.5 6.5 1.7235 6.5 2C6.5 2.2765 6.276 2.5 6 2.5H2C1.7245 2.5 1.5 2.724 1.5 3V10C1.5 10.276 1.7245 10.5 2 10.5H9C9.2755 10.5 9.5 10.276 9.5 10V6C9.5 5.7235 9.724 5.5 10 5.5C10.276 5.5 10.5 5.7235 10.5 6V10C10.5 10.827 9.827 11.5 9 11.5Z" fill="#686E78"/>
<path d="M11.0001 0.5H8.00012C7.79813 0.5 7.61563 0.6215 7.53813 0.8085C7.46062 0.9955 7.50362 1.2105 7.64663 1.3535L8.79313 2.5L5.14662 6.1465C4.95112 6.342 4.95112 6.658 5.14662 6.8535C5.24412 6.951 5.37212 7 5.50012 7C5.62812 7 5.75612 6.951 5.85362 6.8535L9.50012 3.207L10.6466 4.3535C10.7421 4.449 10.8701 4.5 11.0001 4.5C11.0646 4.5 11.1296 4.488 11.1916 4.462C11.3781 4.385 11.5001 4.202 11.5001 4V1C11.5001 0.7235 11.2761 0.5 11.0001 0.5Z" fill="#686E78"/>
</g>
<defs>
<clipPath id="clip0_3312_5190">
<rect width="12" height="12" fill="white"/>
</clipPath>
</defs>
</svg>
