<svg width="22" height="22" viewBox="0 0 22 22" fill="none" xmlns="http://www.w3.org/2000/svg">
<path fill-rule="evenodd" clip-rule="evenodd" d="M9.89999 19.5556C9.89999 19.5556 8.55554 19.5556 8.55554 18.3333C8.55554 17.1111 9.89999 13.4445 15.2778 13.4445C20.6555 13.4445 22 17.1111 22 18.3333C22 19.5556 20.6555 19.5556 20.6555 19.5556H9.89999Z" fill="#686E78"/>
<path fill-rule="evenodd" clip-rule="evenodd" d="M15.2778 12.2222C17.6403 12.2222 19.5556 10.307 19.5556 7.94443C19.5556 5.58188 17.6403 3.66666 15.2778 3.66666C12.9152 3.66666 11 5.58188 11 7.94443C11 10.307 12.9152 12.2222 15.2778 12.2222Z" fill="#686E78"/>
<path fill-rule="evenodd" clip-rule="evenodd" d="M7.30286 19.5556C7.10574 19.218 6.99995 18.8178 6.99995 18.3673C6.99995 16.7566 7.95063 15.1002 9.71027 13.9469C8.94051 13.7379 8.04312 13.6142 7.00001 13.6142C1.4 13.6142 0 17.179 0 18.3673C0 19.5556 1.4 19.5556 1.4 19.5556H7.30286Z" fill="#686E78"/>
<path fill-rule="evenodd" clip-rule="evenodd" d="M6.11112 12.2222C8.13617 12.2222 9.77779 10.5806 9.77779 8.55555C9.77779 6.53051 8.13617 4.88889 6.11112 4.88889C4.08608 4.88889 2.44446 6.53051 2.44446 8.55555C2.44446 10.5806 4.08608 12.2222 6.11112 12.2222Z" fill="#686E78"/>
</svg>
