<svg width="22" height="22" viewBox="0 0 22 22" fill="none" xmlns="http://www.w3.org/2000/svg">
<rect x="3.05554" y="3.66666" width="7.33333" height="7.33333" rx="2" fill="#3B3E43"/>
<rect x="3.05554" y="12.2222" width="7.33333" height="7.33333" rx="2" fill="#3B3E43"/>
<rect x="11.6111" y="3.66666" width="7.33333" height="7.33333" rx="2" fill="#3B3E43"/>
<path d="M15.2778 12.2222C14.6027 12.2222 14.0555 12.7694 14.0555 13.4444V14.6666H12.8333C12.1583 14.6666 11.6111 15.2138 11.6111 15.8889C11.6111 16.5639 12.1583 17.1111 12.8333 17.1111H14.0555V18.3333C14.0555 19.0083 14.6027 19.5555 15.2778 19.5555C15.9528 19.5555 16.5 19.0083 16.5 18.3333V17.1111H17.7222C18.3972 17.1111 18.9444 16.5639 18.9444 15.8889C18.9444 15.2138 18.3972 14.6666 17.7222 14.6666H16.5V13.4444C16.5 12.7694 15.9528 12.2222 15.2778 12.2222Z" fill="#3B3E43"/>
</svg>
