<svg width="18" height="18" viewBox="0 0 18 18" fill="none" xmlns="http://www.w3.org/2000/svg">
<path d="M16.723 10.7533L15.2128 9.60334C15.2319 9.426 15.2484 9.21869 15.2484 8.99934C15.2484 8.78 15.2326 8.57269 15.2128 8.39534L16.7244 7.24469C17.0051 7.02869 17.0818 6.64534 16.9031 6.32603L15.3326 3.68C15.1648 3.38134 14.7972 3.228 14.4241 3.362L12.6421 4.05866C12.3004 3.81866 11.9424 3.616 11.572 3.454L11.3009 1.61334C11.2564 1.264 10.9442 1 10.5752 1H7.42602C7.05701 1 6.74553 1.264 6.70169 1.608L6.42991 3.45534C6.07117 3.61269 5.71861 3.81269 5.36192 4.06L3.57508 3.36134C3.24028 3.23534 2.83978 3.37666 2.67342 3.674L1.10089 6.32334C0.915367 6.62869 0.992033 7.02534 1.2789 7.24669L2.78914 8.39669C2.76517 8.62134 2.75355 8.81669 2.75355 9.00003C2.75355 9.18338 2.7652 9.37869 2.78914 9.60403L1.27752 10.7547C0.996814 10.9713 0.920823 11.3547 1.09951 11.6733L2.67002 14.3193C2.83776 14.6173 3.20196 14.772 3.57848 14.6373L5.36054 13.9407C5.70148 14.18 6.05952 14.3827 6.42991 14.5453L6.70102 16.3853C6.7455 16.736 7.05701 17 7.4267 17H10.5759C10.9449 17 11.2571 16.736 11.3009 16.392L11.5727 14.5453C11.9314 14.3873 12.2833 14.188 12.6407 13.94L14.4275 14.6387C14.5138 14.6713 14.6035 14.688 14.6959 14.688C14.9615 14.688 15.2059 14.5467 15.3291 14.3267L16.9065 11.6667C17.0818 11.3547 17.0051 10.9713 16.723 10.7533ZM9.00061 11.6667C7.49037 11.6667 6.26217 10.4707 6.26217 9C6.26217 7.52934 7.49037 6.33334 9.00061 6.33334C10.5108 6.33334 11.739 7.52934 11.739 9C11.739 10.4707 10.5108 11.6667 9.00061 11.6667Z" fill="white"/>
</svg>
