<svg width="22" height="22" viewBox="0 0 22 22" fill="none" xmlns="http://www.w3.org/2000/svg">
<path d="M20.4392 13.143L18.5933 11.7374C18.6168 11.5207 18.6368 11.2673 18.6368 10.9992C18.6368 10.7311 18.6176 10.4777 18.5933 10.261L20.4409 8.85462C20.784 8.59062 20.8777 8.12209 20.6593 7.73182L18.7398 4.49778C18.5347 4.13276 18.0854 3.94534 17.6294 4.10912L15.4513 4.96059C15.0338 4.66725 14.5962 4.41956 14.1435 4.22156L13.8122 1.97187C13.7578 1.5449 13.3762 1.22223 12.9252 1.22223H9.07619C8.62517 1.22223 8.24448 1.5449 8.1909 1.96534L7.85873 4.2232C7.42026 4.41551 6.98936 4.65996 6.5534 4.96223L4.36949 4.10832C3.96028 3.95432 3.47079 4.12703 3.26746 4.49045L1.34547 7.72854C1.11873 8.10174 1.21243 8.58654 1.56304 8.85707L3.40889 10.2626C3.37959 10.5372 3.36539 10.776 3.36539 11C3.36539 11.2241 3.37963 11.4628 3.40889 11.7383L1.56135 13.1446C1.21827 13.4094 1.1254 13.878 1.34379 14.2674L3.2633 17.5014C3.46831 17.8656 3.91345 18.0547 4.37365 17.8901L6.55171 17.0386C6.96842 17.3312 7.40602 17.5788 7.85873 17.7776L8.19008 20.0265C8.24444 20.4551 8.62517 20.7778 9.07702 20.7778H12.926C13.3771 20.7778 13.7586 20.4551 13.8122 20.0347L14.1443 17.7776C14.5828 17.5845 15.0129 17.3409 15.4497 17.0378L17.6336 17.8917C17.739 17.9316 17.8486 17.952 17.9616 17.952C18.2862 17.952 18.585 17.7793 18.7356 17.5104L20.6634 14.2593C20.8777 13.8779 20.7839 13.4094 20.4392 13.143ZM11.0007 14.2593C9.15484 14.2593 7.65371 12.7975 7.65371 11C7.65371 9.20254 9.15484 7.74076 11.0007 7.74076C12.8465 7.74076 14.3477 9.20254 14.3477 11C14.3477 12.7975 12.8465 14.2593 11.0007 14.2593Z" fill="#686E78"/>
</svg>
